<svg width="50" height="50" viewBox="0 0 50 50" fill="none" xmlns="http://www.w3.org/2000/svg">
<g clip-path="url(#clip0_23_2)">
<path d="M8.43361 49.2008C6.31408 49.2008 4.27907 48.3236 2.6572 46.7001C-0.938898 43.0923 -0.938897 37.2244 2.65637 33.6189L30.697 3.84238C35.072 -0.539656 41.7736 -0.145906 46.6642 4.75097C48.8556 6.94628 50.0853 10.1111 50.0392 13.4377C49.993 16.7291 48.7071 19.8791 46.5094 22.0807L25.3173 44.6416C24.7274 45.2737 23.7383 45.3025 23.1087 44.7096C22.4806 44.1159 22.4501 43.1252 23.0423 42.4955L44.2665 19.9002C45.9267 18.2369 46.879 15.8775 46.9141 13.3939C46.9493 10.9088 46.0516 8.56576 44.4548 6.96498C41.4548 3.95873 36.5703 2.38451 32.9391 6.02436L4.89924 35.8009C2.4883 38.2181 2.48908 42.1001 4.86799 44.4852C5.98356 45.6017 7.30778 46.1454 8.71794 46.0602C10.1132 45.975 11.5476 45.2594 12.757 44.0469L35.0679 20.3C35.8765 19.4899 37.5015 17.5039 35.8476 15.8461C34.9109 14.9079 34.253 14.9657 34.0367 14.9836C33.4187 15.0383 32.6968 15.4657 31.9476 16.2172L15.1547 34.0774C14.5617 34.7079 13.5718 34.7383 12.946 34.1438C12.3171 33.5516 12.2882 32.5594 12.8796 31.9313L29.7031 14.0375C31.0258 12.7086 32.3781 11.9883 33.7547 11.8649C34.8289 11.7695 36.4266 11.9985 38.0563 13.6329C40.475 16.0562 40.1742 19.611 37.3102 22.4813L14.9992 46.2266C13.218 48.0141 11.0672 49.0523 8.90934 49.1851C8.75075 49.196 8.59216 49.2007 8.43356 49.2007L8.43361 49.2008Z" fill="#F3B830"/>
</g>
<defs>
<clipPath id="clip0_23_2">
<rect width="50" height="50" fill="white"/>
</clipPath>
</defs>
</svg>
