<svg width="86" height="63" viewBox="0 0 86 63" fill="none" xmlns="http://www.w3.org/2000/svg"><path d="M79.2273 34.5079L3.77273 34.5079C2.77214 34.5079 1.81253 34.1918 1.105 33.6292C0.397484 33.0666 -1.9271e-07 32.3035 -2.62268e-07 31.5079C-3.31826e-07 30.7122 0.397483 29.9492 1.105 29.3866C1.81253 28.824 2.77214 28.5079 3.77273 28.5079L79.2273 28.5079C80.2279 28.5079 81.1875 28.824 81.895 29.3866C82.6025 29.9492 83 30.7122 83 31.5079C83 32.3035 82.6025 33.0666 81.895 33.6292C81.1875 34.1918 80.2279 34.5079 79.2273 34.5079Z" fill="white"></path><path d="M78.4507 31.2539L52.5319 5.34145C51.9451 4.75466 51.6155 3.95879 51.6155 3.12895C51.6155 2.2991 51.9451 1.50324 52.5319 0.916446C53.1187 0.329654 53.9146 -1.0097e-06 54.7444 -1.08225e-06C55.5743 -1.1548e-06 56.3701 0.329653 56.9569 0.916445L85.0819 29.0414C85.3729 29.3317 85.6038 29.6766 85.7614 30.0562C85.9189 30.4359 86 30.8429 86 31.2539C86 31.665 85.9189 32.072 85.7614 32.4517C85.6038 32.8313 85.3729 33.1762 85.0819 33.4664L56.9569 61.5914C56.3701 62.1782 55.5743 62.5079 54.7444 62.5079C53.9146 62.5079 53.1187 62.1782 52.5319 61.5914C51.9451 61.0047 51.6155 60.2088 51.6155 59.3789C51.6155 58.5491 51.9451 57.7532 52.5319 57.1664L78.4507 31.2539Z" fill="white"></path></svg>