<svg width="86" height="63" viewBox="0 0 86 63" fill="none" xmlns="http://www.w3.org/2000/svg"><path d="M6.77273 28H82.2273C83.2279 28 84.1875 28.3161 84.895 28.8787C85.6025 29.4413 86 30.2044 86 31C86 31.7956 85.6025 32.5587 84.895 33.1213C84.1875 33.6839 83.2279 34 82.2273 34H6.77273C5.77214 34 4.81253 33.6839 4.10501 33.1213C3.39748 32.5587 3 31.7956 3 31C3 30.2044 3.39748 29.4413 4.10501 28.8787C4.81253 28.3161 5.77214 28 6.77273 28Z" fill="white"></path><path d="M7.54934 31.2539L33.4681 57.1664C34.0549 57.7532 34.3845 58.5491 34.3845 59.3789C34.3845 60.2088 34.0549 61.0047 33.4681 61.5914C32.8813 62.1782 32.0854 62.5079 31.2556 62.5079C30.4257 62.5079 29.6299 62.1782 29.0431 61.5914L0.918086 33.4664C0.627066 33.1762 0.396173 32.8313 0.238633 32.4517C0.0810928 32.072 0 31.665 0 31.2539C0 30.8429 0.0810928 30.4359 0.238633 30.0562C0.396173 29.6766 0.627066 29.3317 0.918086 29.0414L29.0431 0.916447C29.6299 0.329655 30.4257 0 31.2556 0C32.0854 0 32.8813 0.329655 33.4681 0.916447C34.0549 1.50324 34.3845 2.2991 34.3845 3.12895C34.3845 3.9588 34.0549 4.75466 33.4681 5.34145L7.54934 31.2539Z" fill="white"></path></svg>