<?xml version="1.0" standalone="no"?>
<!DOCTYPE svg PUBLIC "-//W3C//DTD SVG 20010904//EN"
 "http://www.w3.org/TR/2001/REC-SVG-20010904/DTD/svg10.dtd">
<svg version="1.0" xmlns="http://www.w3.org/2000/svg"
 width="225.000000pt" height="125.000000pt" viewBox="0 0 225.000000 225.000000"
 preserveAspectRatio="xMidYMid meet">

<g transform="translate(0.000000,225.000000) scale(0.100000,-0.100000)"
fill="#f3b82f" stroke="none">
<path d="M560 1365 c-26 -31 0 -35 210 -35 l208 0 21 -34 c12 -18 21 -36 21
-40 0 -4 -91 -6 -202 -6 -162 1 -202 -2 -200 -12 10 -36 22 -38 232 -38 l207
0 47 -80 c49 -85 54 -101 32 -119 -17 -14 -39 8 -35 36 1 10 -4 30 -11 46
l-13 27 -24 -40 -24 -40 47 -79 c41 -68 50 -77 59 -63 6 9 28 45 49 80 l38 62
-104 175 -103 175 -221 0 c-182 0 -224 -3 -234 -15z"/>
<path d="M1191 1305 c-40 -71 -42 -78 -30 -106 10 -25 14 -28 21 -15 8 14 37
16 218 16 205 0 209 0 225 23 l15 22 -205 3 c-113 1 -205 5 -205 9 0 3 9 21
21 39 l21 34 208 0 c197 0 210 1 220 19 5 11 10 22 10 25 0 3 -107 6 -237 6
l-238 0 -44 -75z"/>
</g>
</svg>
